<?xml version="1.0" encoding="UTF-8"?>
<svg width="1200pt" height="1200pt" version="1.1" viewBox="0 0 1200 1200" xmlns="http://www.w3.org/2000/svg">
 <g fill="#283140">
  <path d="m862.5 150h-112.5v-56.25c0-14.918-5.9258-29.227-16.477-39.773-10.547-10.551-24.855-16.477-39.773-16.477h-187.5c-14.918 0-29.227 5.9258-39.773 16.477-10.551 10.547-16.477 24.855-16.477 39.773v56.25h-112.5c-14.918 0-29.227 5.9258-39.773 16.477-10.551 10.547-16.477 24.855-16.477 39.773v900c0 14.918 5.9258 29.227 16.477 39.773 10.547 10.551 24.855 16.477 39.773 16.477h525c14.918 0 29.227-5.9258 39.773-16.477 10.551-10.547 16.477-24.855 16.477-39.773v-900c0-14.918-5.9258-29.227-16.477-39.773-10.547-10.551-24.855-16.477-39.773-16.477zm-375-56.25c0-4.9727 1.9766-9.7422 5.4922-13.258 3.5156-3.5156 8.2852-5.4922 13.258-5.4922h187.5c4.9727 0 9.7422 1.9766 13.258 5.4922 3.5156 3.5156 5.4922 8.2852 5.4922 13.258v56.25h-225zm393.75 1012.5c0 4.9727-1.9766 9.7422-5.4922 13.258-3.5156 3.5156-8.2852 5.4922-13.258 5.4922h-525c-4.9727 0-9.7422-1.9766-13.258-5.4922-3.5156-3.5156-5.4922-8.2852-5.4922-13.258v-900c0-4.9727 1.9766-9.7422 5.4922-13.258 3.5156-3.5156 8.2852-5.4922 13.258-5.4922h525c4.9727 0 9.7422 1.9766 13.258 5.4922 3.5156 3.5156 5.4922 8.2852 5.4922 13.258z"/>
  <path d="m600 225c-90.543 0-187.5 67.801-187.5 168.75-1.2148 26.633 5.0039 53.078 17.953 76.379 12.949 23.305 32.121 42.551 55.379 55.582 3.4297 2.3633 7.0508 4.9492 10.387 7.5-12.281 7.2695-21.316 18.961-25.254 32.68s-2.4727 28.422 4.0898 41.098c6.5586 12.672 17.723 22.355 31.195 27.062v22.199c0 14.918 5.9258 29.227 16.477 39.773 10.547 10.551 24.855 16.477 39.773 16.477h7.1641l-98.945 197.87c-2.9062 5.8164-2.5938 12.719 0.82812 18.246 3.418 5.5273 9.4531 8.8906 15.953 8.8867h93.75v131.25c-0.0625 5.7266 2.4922 11.168 6.9375 14.773 4.4492 3.6055 10.301 4.9844 15.891 3.7383 5.5898-1.2461 10.301-4.9766 12.797-10.129l112.5-225c2.9141-5.832 2.5898-12.754-0.85156-18.285-3.4414-5.5352-9.5078-8.8828-16.023-8.8477h-93.75v-112.5h18.75c14.918 0 29.227-5.9258 39.773-16.477 10.551-10.547 16.477-24.855 16.477-39.773v-22.199c13.488-4.6992 24.664-14.383 31.23-27.066 6.5703-12.68 8.0312-27.398 4.0898-41.125-3.9414-13.727-12.992-25.422-25.289-32.684 3.3359-2.5117 6.957-5.1016 10.387-7.5 23.25-13.031 42.422-32.27 55.371-55.566 12.949-23.297 19.168-49.734 17.961-76.359 0-100.95-96.957-168.75-187.5-168.75zm82.164 637.5-63.414 126.82v-70.574c0-4.9727-1.9766-9.7422-5.4922-13.258-3.5156-3.5156-8.2852-5.4922-13.258-5.4922h-82.164l63.414-126.82v70.574c0 4.9727 1.9766 9.7422 5.4922 13.258 3.5156 3.5156 8.2852 5.4922 13.258 5.4922zm-44.664-187.5h-75c-4.9727 0-9.7422-1.9766-13.258-5.4922-3.5156-3.5156-5.4922-8.2852-5.4922-13.258v-18.75h112.5v18.75c0 4.9727-1.9766 9.7422-5.4922 13.258-3.5156 3.5156-8.2852 5.4922-13.258 5.4922zm37.5-75h-150c-6.6992 0-12.887-3.5742-16.238-9.375-3.3477-5.8008-3.3477-12.949 0-18.75 3.3516-5.8008 9.5391-9.375 16.238-9.375h150c6.6992 0 12.887 3.5742 16.238 9.375 3.3477 5.8008 3.3477 12.949 0 18.75-3.3516 5.8008-9.5391 9.375-16.238 9.375zm17.812-105.11c-12.801 7.4141-23.688 17.73-31.781 30.113h-122.06c-8.1211-12.395-19.039-22.711-31.875-30.113-26.719-18.637-57.094-39.637-57.094-101.14 0-77.344 79.051-131.25 150-131.25s150 53.906 150 131.25c0 61.5-30.375 82.5-57.188 101.14z"/>
 </g>
</svg>
