<?xml version="1.0" encoding="UTF-8"?>
<svg width="1200pt" height="1200pt" version="1.1" viewBox="0 0 1200 1200" xmlns="http://www.w3.org/2000/svg">
 <g fill="#283140">
  <path d="m206.81 670.31h-90.188c-9.8672 0-19.148-3.8477-26.109-10.828-6.9844-6.9609-10.828-16.242-10.828-26.109v-373.22c0-21.914 8.5312-42.516 24.023-58.008 15.492-15.492 36.094-24.023 58.008-24.023s42.516 8.5312 58.008 24.023c15.492 15.492 24.023 36.094 24.023 58.008v373.22c0 9.8672-3.8438 19.148-10.828 26.109-6.9609 6.9805-16.242 10.828-26.109 10.828zm-80.25-46.875h70.312v-363.28c-0.046875-19.336-15.797-35.109-35.156-35.156-19.336 0.046875-35.109 15.82-35.156 35.156z"/>
  <path d="m164.51 1015.2c-12.914 0-23.438-10.496-23.438-23.438v-344.86c0-12.914 10.523-23.438 23.438-23.438 12.938 0 23.438 10.523 23.438 23.438v344.86c0 12.938-10.5 23.438-23.438 23.438z"/>
  <path d="m243.75 1015.2c-12.914 0-23.438-10.496-23.438-23.438v-169.48c0.023438-9.9375-3.1875-19.805-8.5781-26.395-4.6641-5.6016-9.6094-8.3438-15.141-8.3633h-69.727c-5.4844 0.023438-10.57 2.8359-15.164 8.3633-5.3906 6.6094-8.6016 16.477-8.5781 26.395v169.48c0 12.941-10.523 23.438-23.438 23.438s-23.438-10.496-23.438-23.438v-169.48c0.023438-20.883 6.7969-40.734 19.055-55.922 13.102-16.336 31.852-25.711 51.469-25.711h69.891c19.617 0 38.367 9.375 51.469 25.711 12.258 15.188 19.031 35.039 19.055 55.922v169.48c0 12.938-10.523 23.438-23.438 23.438z"/>
  <path d="m1056.7 1015.2c-23.273 0-45.117-9.0703-61.57-25.5-16.43-16.43-25.477-38.297-25.5-61.547v-339.28c0-5.7188 2.1992-11.438 6.0469-15.703-21.773-21.375-38.91-46.805-50.93-75.609-12.422-29.695-18.699-61.406-18.727-94.242 0-30.844 5.582-60.773 16.594-88.992 10.691-27.352 25.996-51.961 45.516-73.102 19.574-21.234 42.496-37.945 68.113-49.688 26.625-12.211 54.891-18.398 83.977-18.398h0.09375c6.1641 0 12.211 2.5078 16.566 6.8672 4.3594 4.3594 6.8711 10.383 6.8711 16.57v132.16 0.046874c0 12.914-10.5 23.438-23.438 23.438-12.914 0-23.438-10.523-23.438-23.438v-106.99c-35.742 5.4844-68.344 23.18-94.289 51.234-32.039 34.711-49.688 80.977-49.688 130.29-0.023438 69.656 36.941 134.37 94.195 164.88 9.4922 5.0625 14.32 15.914 11.695 26.367-2.625 10.43-11.957 17.742-22.734 17.742h-19.547v315.84c0.046876 22.102 18.07 40.125 40.191 40.172 22.105-0.046875 40.125-18.07 40.176-40.172v-364.99c0-12.914 10.523-23.438 23.438-23.438s23.438 10.523 23.438 23.438v364.99c0 23.25-9.0703 45.117-25.5 61.547-16.434 16.43-38.297 25.5-61.551 25.5zm63.613-545.79c-12.914 0-23.438-10.523-23.438-23.438 0-12.914 10.523-23.438 23.438-23.438s23.438 10.523 23.438 23.438c0 12.914-10.523 23.438-23.438 23.438z"/>
  <path d="m595.31 928.12c-44.297 0-87.281-8.6719-127.73-25.781-19.43-8.2266-38.18-18.422-55.734-30.258-17.367-11.742-33.703-25.219-48.539-40.078-14.859-14.836-28.336-31.176-40.078-48.566-11.836-17.527-22.031-36.277-30.258-55.711-17.109-40.453-25.781-83.441-25.781-127.73 0-39.516 6.9609-78.211 20.695-114.94 13.289-35.531 32.508-68.227 57.117-97.219 4.4531-5.25 10.969-8.2734 17.883-8.2734 5.5312 0 10.898 1.9688 15.141 5.5781 9.8438 8.3438 11.062 23.18 2.7188 33.023-42.984 50.699-66.68 115.27-66.68 181.83 0 75.094 29.273 145.73 82.383 198.87 53.133 53.109 123.77 82.383 198.87 82.383s145.73-29.273 198.87-82.383c53.109-53.133 82.359-123.77 82.383-198.87-0.023438-75.094-29.273-145.73-82.383-198.87-53.133-53.109-123.77-82.359-198.87-82.383-9.2344 0-18.586 0.44531-27.75 1.3594h-0.023438c-6.5625 0.63281-13.102-1.5234-18-5.9297-4.3359-3.9141-7.0547-9.2812-7.6172-15.117-0.09375-0.79688-0.11719-1.5938-0.11719-2.3906 0.046874-12.07 9.1406-22.055 21.164-23.227 10.664-1.0312 21.562-1.5703 32.344-1.5703 44.293 0 87.281 8.6719 127.71 25.781 19.453 8.2266 38.203 18.398 55.73 30.258 17.391 11.742 33.73 25.219 48.566 40.078 14.859 14.836 28.336 31.172 40.078 48.539 11.836 17.555 22.031 36.305 30.258 55.758 17.109 40.43 25.781 83.414 25.781 127.71 0 44.293-8.6719 87.281-25.781 127.73-8.2266 19.43-18.422 38.18-30.258 55.711-11.742 17.391-25.219 33.73-40.078 48.566-14.836 14.859-31.176 28.336-48.566 40.078-17.527 11.836-36.277 22.031-55.73 30.258-40.43 17.105-83.418 25.777-127.71 25.777zm-141.59-574.55c-8.7422 0-16.711-4.8047-20.766-12.516-2.9062-5.5547-3.4922-11.883-1.6406-17.859 1.8516-6 5.9297-10.875 11.484-13.805 3.3516-1.7578 7.125-2.6953 10.875-2.6953 8.7422 0 16.711 4.8047 20.766 12.539 6.0234 11.438 1.5938 25.641-9.8438 31.641-3.3516 1.7812-7.1016 2.6953-10.875 2.6953z"/>
  <path d="m595.31 928.12c-44.297 0-87.281-8.6719-127.73-25.781-19.43-8.2266-38.18-18.422-55.734-30.258-17.367-11.742-33.703-25.219-48.539-40.078-14.859-14.836-28.336-31.176-40.078-48.566-11.836-17.527-22.031-36.277-30.258-55.711-17.109-40.453-25.781-83.441-25.781-127.73 0-39.516 6.9609-78.211 20.695-114.94 13.289-35.531 32.508-68.227 57.117-97.219 4.4531-5.25 10.969-8.2734 17.883-8.2734 5.5312 0 10.898 1.9688 15.141 5.5781 9.8438 8.3438 11.062 23.18 2.7188 33.023-42.984 50.699-66.68 115.27-66.68 181.83 0 75.094 29.273 145.73 82.383 198.87 53.133 53.109 123.77 82.383 198.87 82.383s145.73-29.273 198.87-82.383c53.109-53.133 82.359-123.77 82.383-198.87-0.023438-75.094-29.273-145.73-82.383-198.87-53.133-53.109-123.77-82.359-198.87-82.383-9.2344 0-18.586 0.44531-27.75 1.3594h-0.023438c-6.5625 0.63281-13.102-1.5234-18-5.9297-4.3359-3.9141-7.0547-9.2812-7.6172-15.117-0.09375-0.79688-0.11719-1.5938-0.11719-2.3906 0.046874-12.07 9.1406-22.055 21.164-23.227 10.664-1.0312 21.562-1.5703 32.344-1.5703 44.293 0 87.281 8.6719 127.71 25.781 19.453 8.2266 38.203 18.398 55.73 30.258 17.391 11.742 33.73 25.219 48.566 40.078 14.859 14.836 28.336 31.172 40.078 48.539 11.836 17.555 22.031 36.305 30.258 55.758 17.109 40.43 25.781 83.414 25.781 127.71 0 44.293-8.6719 87.281-25.781 127.73-8.2266 19.43-18.422 38.18-30.258 55.711-11.742 17.391-25.219 33.73-40.078 48.566-14.836 14.859-31.176 28.336-48.566 40.078-17.527 11.836-36.277 22.031-55.73 30.258-40.43 17.105-83.418 25.777-127.71 25.777zm-141.59-574.55c-8.7422 0-16.711-4.8047-20.766-12.516-2.9062-5.5547-3.4922-11.883-1.6406-17.859 1.8516-6 5.9297-10.875 11.484-13.805 3.3516-1.7578 7.125-2.6953 10.875-2.6953 8.7422 0 16.711 4.8047 20.766 12.539 6.0234 11.438 1.5938 25.641-9.8438 31.641-3.3516 1.7812-7.1016 2.6953-10.875 2.6953z"/>
  <path d="m595.31 1068.8h-0.070312c-52.664 0-104.41-8.6953-153.77-25.832-47.719-16.594-92.25-40.684-132.35-71.645-10.242-7.8984-12.141-22.664-4.2422-32.883 4.4766-5.7891 11.25-9.1172 18.562-9.1172 5.2266 0 10.172 1.6875 14.32 4.8711 74.344 57.379 163.41 87.73 257.55 87.73 12.914 0 23.438 10.523 23.438 23.438s-10.523 23.438-23.438 23.438z"/>
  <path d="m300 290.13c-6.7031 0-13.102-2.8828-17.531-7.8984-4.1719-4.6875-6.2344-10.711-5.8594-16.945 0.375-6.2578 3.1641-11.977 7.8516-16.148 41.93-37.172 89.602-66.258 141.7-86.438 53.93-20.883 110.84-31.453 169.1-31.453h0.09375c57.117 0 112.97 10.172 165.98 30.258 51.211 19.406 98.273 47.438 139.9 83.344 9.7734 8.4375 10.875 23.25 2.4336 33.047-4.4492 5.1562-10.918 8.1328-17.738 8.1328-5.625 0-11.062-2.0156-15.305-5.6953-76.477-65.906-174.26-102.21-275.32-102.21-103.22 0-202.57 37.688-279.77 106.1-4.2891 3.7969-9.7969 5.9062-15.539 5.9062z"/>
  <path d="m562.55 890.62c-2.2031 0-4.4062-0.30469-6.5156-0.91797-4.9453-1.4258-9.1875-4.3359-12.258-8.4141-3.0938-4.1016-4.7109-8.9766-4.7109-14.109v-220.62h-107.81c-8.5312 0-16.383-4.6211-20.508-12.07-4.125-7.4727-3.8672-16.594 0.65625-23.812l196.88-313.76c4.3125-6.8906 11.719-10.992 19.828-10.992 2.1797 0 4.3789 0.30469 6.5117 0.91406 4.9258 1.4297 9.1641 4.3359 12.238 8.4141 3.0898 4.1016 4.7109 8.9766 4.7109 14.109v220.62h107.81c8.5312 0 16.383 4.6172 20.508 12.094 4.125 7.4531 3.8633 16.57-0.65625 23.789l-45.258 72.141h-0.027344c-4.3125 6.8906-11.742 10.992-19.871 10.992-4.3828 0-8.6953-1.2422-12.422-3.5859-0.42578-0.28125-0.84375-0.5625-1.2422-0.84375-6.1172-4.4062-9.75-11.531-9.75-19.098 0.023438-4.3594 1.2656-8.6484 3.5859-12.375l22.758-36.258h-88.875c-6.1641 0-12.211-2.4844-16.57-6.8438-4.3594-4.3828-6.8672-10.406-6.8672-16.57v-162.61l-131.06 208.9h88.875c6.1641 0 12.211 2.4844 16.57 6.8438 4.3594 4.3828 6.8672 10.406 6.8672 16.594v177.77c5.5547-0.83984 11.297 0.33203 16.055 3.3281 5.2969 3.3281 9 8.5117 10.387 14.602 1.4062 6.1172 0.34766 12.398-2.9805 17.695l-27.047 43.078c-4.3125 6.8906-11.719 10.992-19.805 10.992zm89.25-142.36c-4.3828 0-8.6953-1.2422-12.445-3.5859-10.945-6.8672-14.25-21.348-7.3828-32.293 4.3125-6.8906 11.742-10.992 19.875-10.992 4.3828 0 8.6953 1.2422 12.422 3.5859 10.945 6.8672 14.273 21.375 7.4062 32.32-4.3125 6.8633-11.746 10.965-19.875 10.965z"/>
 </g>
</svg>
