<?xml version="1.0" encoding="UTF-8"?>
<svg width="1200pt" height="1200pt" version="1.1" viewBox="0 0 1200 1200" xmlns="http://www.w3.org/2000/svg">
 <path d="m918.75 1162.5h-20.625c-6.5625-14.062-27.188-25.312-53.438-27.188l-134.06-505.31 128.44-32.812c-2.8125 1.875-3.75 4.6875-3.75 7.5v18.75c0 5.625 3.75 9.375 9.375 9.375s9.375-3.75 9.375-9.375v-18.75c0-4.6875-3.75-8.4375-7.5-9.375l2.8125-0.9375c10.312-2.8125 15.938-13.125 13.125-23.438-0.9375-4.6875-4.6875-9.375-9.375-11.25l-159.38-80.625-4.6875-57.188 197.81-40.312c-2.8125 1.875-4.6875 4.6875-4.6875 8.4375v18.75c0 5.625 3.75 9.375 9.375 9.375s9.375-3.75 9.375-9.375v-18.75c0-4.6875-3.75-8.4375-8.4375-9.375l2.8125-0.9375c10.312-2.8125 15.938-12.188 14.062-22.5-1.875-6.5625-6.5625-11.25-12.188-13.125l-227.81-65.625-4.6875-30.938 100.31-30.938c-1.875 1.875-2.8125 3.75-2.8125 6.5625v18.75c0 5.625 3.75 9.375 9.375 9.375s9.375-3.75 9.375-9.375v-18.75c0-4.6875-2.8125-8.4375-7.5-9.375l3.75-0.9375c9.375-3.75 14.062-15 10.312-24.375-1.875-4.6875-5.625-8.4375-10.312-10.312l-120.94-43.125-33.75-121.88c-3.75-9.375-14.062-15-23.438-12.188-5.625 1.875-10.312 6.5625-12.188 12.188l-34.688 120.94-120 44.062c-9.375 3.75-15 14.062-11.25 24.375 1.875 5.625 6.5625 9.375 11.25 11.25l3.75 0.9375c-4.6875 0.9375-7.5 4.6875-7.5 9.375v18.75c0 5.625 3.75 9.375 9.375 9.375s9.375-3.75 9.375-9.375v-18.75c0-2.8125-0.9375-4.6875-2.8125-6.5625l100.31 30.938-4.6875 30.938-227.81 65.625c-10.312 2.8125-15 14.062-12.188 23.438 1.875 6.5625 7.5 11.25 13.125 12.188l2.8125 0.9375c-4.6875 0.9375-8.4375 4.6875-8.4375 9.375v18.75c0 5.625 3.75 9.375 9.375 9.375s9.375-3.75 9.375-9.375v-18.75c0-3.75-1.875-6.5625-4.6875-8.4375l197.81 40.312-3.75 57.188-159.38 80.625c-9.375 4.6875-13.125 15.938-7.5 25.312 2.8125 4.6875 6.5625 8.4375 11.25 9.375l2.8125 0.9375c-4.6875 0.9375-8.4375 4.6875-7.5 9.375v18.75c0 5.625 3.75 9.375 9.375 9.375s9.375-3.75 9.375-9.375v-18.75c0-2.8125-1.875-5.625-3.75-7.5l128.44 31.875-135 506.25c-21.562 3.75-38.438 14.062-44.062 26.25h-38.438c-10.312 0-18.75 8.4375-18.75 18.75s8.4375 18.75 18.75 18.75h637.5c10.312 0 18.75-8.4375 18.75-18.75s-8.4375-18.75-18.75-18.75zm-299.06-612.19 40.312-30.938 6.5625 67.5zm41.25 54.375h-112.5l56.25-43.125zm-1.875-107.81-54.375 41.25-54.375-41.25 0.9375-9.375 53.438-28.125 53.438 28.125zm-69.375 53.438-46.875 35.625 6.5625-67.5zm81.562 73.125-67.5 104.06-65.625-104.06zm6.5625 23.438 90.938 341.25-152.81-243.75zm-53.438-197.81 28.125-15 3.75 31.875zm-19.688-81.562 45.938 45.938-45.938 24.375-45.938-24.375zm42.188 15.938-29.062-29.062 21.562-21.562zm-71.25-87.188 29.062-17.812 29.062 17.812 1.875 14.062-30.938 30.938-30.938-30.938zm46.875-28.125 6.5625-3.75 0.9375 8.4375zm0.9375-56.25v11.25 2.8125l2.8125 17.812-21.562 13.125-21.562-13.125 2.8125-17.812v-2.8125-11.25l18.75-13.125zm-2.8125-23.438 1.875-0.9375v2.8125zm-34.688 0.9375v-2.8125l1.875 0.9375zm0.9375 78.75-7.5 4.6875 0.9375-8.4375zm4.6875 86.25-29.062 28.125 7.5-49.688zm-6.5625 93.75-31.875 17.812 2.8125-31.875zm-53.438 199.69 60.938 97.5-148.12 230.62zm-102.19 386.25 174.38-271.88 180 286.88 0.9375 1.875h-360zm362.81-463.12-88.125 22.5-6.5625-70.312zm-107.81-185.62-9.375-66.562 138.75 40.312zm-24.375-175.31v-34.688l51.562 18.75zm-55.312-123.75 18.75 64.688v13.125l-18.75 13.125-18.75-13.125v-13.125zm-55.312 89.062v34.688l-52.5-15.938zm-15 143.44-9.375 66.562-129.38-26.25zm-23.438 204.38-6.5625 70.312-88.125-22.5zm232.5 639.38h-298.12c-5.625-12.188-21.562-22.5-43.125-26.25l17.812-66.562h370.31l17.812 68.438c-14.062 2.8125-27.188 11.25-34.688 24.375z" fill="#283140"/>
</svg>
